# Blender v2.79 (sub 0) OBJ File: ''
# www.blender.org
mtllib colorcube.mtl
o Cube_Cube.001
v -1.000000 -1.000000 1.000000
v -1.000000 1.000000 1.000000
v -1.000000 -1.000000 -1.000000
v -1.000000 1.000000 -1.000000
v 1.000000 -1.000000 1.000000
v 1.000000 1.000000 1.000000
v 1.000000 -1.000000 -1.000000
v 1.000000 1.000000 -1.000000
vn 0.0000 1.0000 0.0000
vn 1.0000 0.0000 0.0000
vn -1.0000 0.0000 0.0000
vn 0.0000 0.0000 1.0000
vn 0.0000 0.0000 -1.0000
vn 0.0000 -1.0000 0.0000
usemtl Material.004
s off
f 4//1 6//1 8//1
f 4//1 2//1 6//1
usemtl Material.005
f 8//2 5//2 7//2
f 8//2 6//2 5//2
usemtl Material.006
f 2//3 3//3 1//3
f 2//3 4//3 3//3
usemtl Material.007
f 6//4 1//4 5//4
f 6//4 2//4 1//4
usemtl Material.008
f 4//5 7//5 3//5
f 4//5 8//5 7//5
usemtl Material.009
f 7//6 1//6 3//6
f 7//6 5//6 1//6
